<svg  xmlns='http://www.w3.org/2000/svg' viewBox="0 0 637.3954699 55.4680786">
  <path d="m25.1797717.3713989c2.6237183.8404541,4.3323364,2.2368164,4.3084717,3.6383057-.0023804.1407471-.0145874.543335-.2849731.9202881-1.1629639,1.621521-5.4233398.4273682-8.5234985-.4415283-1.4320068-.4013672-7.3145142-2.3284302-8.5213013-2.4893799-1.4996338-.2000122-3.4210205-.4562988-5.6170044.3191528-.7111206.2510986-2.1549072.7634277-3.4468384,2.1383057-.4087524.4349976-1.3184204,1.4259644-1.7487183,3.0061035-.1083374.3978882-.8847046,3.4432983,1.0785522,5.7704468.8543701,1.0127563,1.8831177,1.4812622,2.4573975,1.6915283-1.0772705-2.9249878-.5391235-4.137085-.0957031-4.6755371,1.5135498-1.8380127,5.9345703-.6983032,11.2739258.6781616,3.0412598.7840576,4.6912842,1.4638672,8.2420044,1.9707642.6496582.0927734,1.2349243.1604004,1.7764282.2022095v6.251709l-3.0010986,3.0010986,3.0010986,3.0010986v10.9570923c-.7921143.4360352-1.6574097.8212891-2.6221924,1.1134033-4.7434692,1.4362183-10.2044678.3408813-13.4754028-2.8950806l8.7620239-3.4454956,1.4102173-.5530396V13.4884644l-2.3971558,1.0340576-.0002441-.0004883-9.6953125,4.1420898c1.0734863-2.4746094,2.7355957-4.8705444,5.055481-6.9469604-1.5272827.2322998-6.1008301,1.1312866-9.5266113,5.0744629C-.7179334,21.7495117-.6769788,28.595459,1.2483752,33.402771c3.0574341,7.6339111,11.5603027,11.8660278,19.0005493,10.6760864,1.0133667-.1620483,8.7763672-1.5309448,11.6808472-8.2340088,1.2897949-2.9766846,1.0964966-5.7935181.8585205-7.3413086-.2114868.5800781-1.8751221,4.8908081-6.2097778,7.5217285v-10.6707764l3.0014648-3.0014648-3.0014648-3.0014648v-6.223938c1.4508667.0679932,2.5803223-.0847778,3.7235718-.5487671.847168-.343811,2.7156982-1.1013184,3.6383057-3.0638428,1.1104736-2.3619995.0443115-4.7262573-.1436157-5.1223145C32.4939196,1.6465454,29.0548937.0212402,25.1797717.3713989ZM7.7936022,19.3219604l5.0350952-2.151123v15.7022095l-3.2288208,1.2696533c-3.185791-3.5059814-3.9519653-9.3075562-1.8062744-14.8207397Z"/>
  <path d="m62.6761706,18.9204712l-.3476563-.359375-1.7190552,1.6588745c-1.0431519-.7756348-4.6502075-3.461853-6.5558472-4.9311523l-.0043945-.0045776-.0006714.0006714c-.0055542-.0042725-.012146-.0093384-.0177002-.0136108-1.5106812,1.4680786-3.0213013,2.9361572-4.5319214,4.4042358.000061.000061.0001221.000061.0001831.0001221l-2.2980957,2.2179565V0l-5.0970459,5.0195313-4.1782837,4.0322876.3476563.359375,1.5872803-1.5317993v30.8240356l-2.6951904,2.6008301.3476563.359375,2.4177246-2.3330688,5.8615112,4.9468994,3.4490967-3.3695068,3.1867065-3.0753784-.3476563-.359375-2.119873,2.0457764-2.7595825-2.4498291v-14.4806519l2.68396-2.590332c1.296875,1.0839844,2.593689,2.1679077,3.8905029,3.2518311l-.1276245,18.1915283c-.0072021,1.0245972-.1031494,2.8352661-1.2287598,4.6276245-1.4337158,2.28302-3.7890015,3.2859497-5.1940918,3.7340698.923584.1726074,5.9996338,1.0335083,9.6940918-2.1542969,1.6704712-1.4412842,2.5110474-3.2379761,2.7835693-3.8782349,1.3278198-3.1195679,1.2022705-7.0524902,1.2022705-7.0526123l.0025635-16.0908203,1.7686768-1.7067871Z"/>
  <path d="m82.5312731,39.0290527l-7.5961914-5.1194458v-1.0077515l12.1405029-8.6166382-.0006104-.0009155.0087891-.0062256-5.6329956-9.0426636-5.9986572,3.2255859-6.7034302,3.4657593-.9271851.4775391.0039063,4.7739868h-.0037231v.25h.0039673l.0081177,9.9003906-2.3074951,1.6376953.2890625.4082031,2.2205811-1.5760498,8.989563,6.4789429,3.7138672-3.1020508.0007935.0009155,7.7973633-6.5087891-.3203125-.3847656-5.6859131,4.7462769Zm-7.5961914-19.737793l.7592773-.3925171,5.317688,9.0766602-6.0769653,4.3131104v-12.9972534Z"/>
  <path d="m608.8175891,39.0289917l-7.5961304-5.1193848v-1.0077515l12.1407471-8.6166382-.0006714-.0009766.008667-.0061646-5.6330566-9.0426636-5.9857788,3.2186279-6.8004761,3.5161133-.8429565.4341431.0039063,4.7739868h-.00354v.25h.0037231l.0081177,9.9002075-2.3077393,1.6378784.2890625.4082031,2.2207031-1.5761108,8.9897461,6.4790039,3.7136841-3.1019287.0006714.0007935,7.7978516-6.5087891-.3203125-.3847656-5.6862183,4.7462158Zm-7.5961304-11.600708h.0001221v-.25h-.0001221v-7.8867188l.7593994-.3926392,5.317627,9.0765381-6.0770264,4.3130493v-4.8602295Z"/>
  <path d="m136.0520861,11.3021851l1.4465332-1.4630127,5.755188-5.736084-.3525391-.3544922-1.7892456,1.7833252c-1.3980713-.3171997-3.1018066-.8309937-4.9641724-1.7297363-2.227417-1.0748291-3.9212646-2.3286743-5.1063843-3.3510132-1.0873413.6954346-2.1746826,1.3909302-3.2620239,2.0863647l-11.2672119,6.9495239c2.137085-3.3620605,4.8250122-5.4534302,6.3270874-6.4827271-2.2062988.7254639-8.8984375,3.2440796-12.8297729,10.0532227-4.5791626,7.9311523-4.4091187,19.9452515,3.2553101,26.5212402,5.1793823,4.4438477,14.2605591,6.8009033,21.1596069,2.2021484,6.0133057-4.0084229,7.0203857-11.0720215,7.1808472-12.3510742-.4109497.9154053-2.8540649,6.1266479-8.8085327,8.1383057-1.1785889.3981934-2.3578491.6195679-3.5161133.7034302V8.1819458c2.5366211,1.6415405,4.9454956,2.5783691,6.7714233,3.1202393Zm-11.4459839-6.2195435l.472168-.2912598c.9796753.975647,2.197937,2.0383911,3.7023926,3.0628662v12.7261353c-.4632568.2706299-1.2278442.6081543-2.2368164.5637207-.8569336-.0306396-1.5217285-.3187866-1.9692383-.5846558.024231-5.170105.1201782-10.3981323.0314941-15.4768066Zm-.0353394,16.0498657c.4885254.2498779,1.1488647.4824829,1.9550171.5115967.0566406.0019531.112793.0029297.1679688.0029297.8735352,0,1.5858154-.25,2.0869141-.4990845v3.7020264c-.4805298-.2351074-1.1121826-.4472656-1.8774414-.4749146-.9824829-.0304565-1.7807007.2518311-2.3143311.5239868-.0098877-1.2523804-.022583-2.5025635-.0181274-3.7665405Zm-9.8748169-8.0548096c.3729248-.9725342.8188477-1.847229,1.2891235-2.6776733l2.0219116-1.2470703c.0838623,6.6721802.1677246,13.5150146.2515869,20.1929932l-2.972168,1.2442017c-2.7938843-5.3391724-2.5689697-12.3530273-.5904541-17.5124512Zm4.7487183,22.4031982c-1.6658325-1.2095337-2.9520874-2.7367554-3.9197388-4.4487305l7.1842041-3.0073853c.6045532-.2490845,1.2243042-.5043945,1.895752-.7810669-.0107422-.5852661-.0060425-1.1829834-.012085-1.7720947.4560547-.274231,1.2487793-.6392822,2.2923584-.5965576.8116455.0290527,1.4488525.2891235,1.8955078.5425415v12.8811646c-3.5955811.1345215-6.9459839-1.0825806-9.3359985-2.8178711Z"/>
  <path d="m162.2939074,16.9260254c-1.1882324-.1419067-1.9576416-.8705444-2.2197266-1.144104-1.477417,1.4667358-2.9547119,2.9334106-4.4320679,4.4001465l-4.7288818-5.0368652-3.6413574,3.5368042-3.7265625,3.5963745.3476563.359375,2.3526611-2.2705078,2.0599365,2.1497192v16.1868286l-2.6948242,2.6004639.3476563.359375,2.4175415-2.3329468,5.8613281,4.9467773,3.4590454-3.3792114,3.1766357-3.0656738-.3476563-.359375-2.119812,2.0457153-2.7595215-2.4497681v-16.8729858c1.3087158,1.833374,3.3148193,2.9916382,5.2591553,2.7883301,2.9223022-.305481,5.581665-3.6726685,5.0413818-7.8392944-.8665771,1.2506104-2.269043,1.946167-3.6525879,1.7808228Z"/>
  <path d="m192.819237,18.0430298l-1.961853,1.8933105-4.49823-4.7911377-5.0093384,4.8654785,2.4016113,2.5062866v20.3447266c-.0014038.1732788-.0043335.3924561-.0070801.6252441-.7987671-.0022583-1.5991821-.0256958-2.3894653-.0918579-.9906616-.0834351-1.9848633-.2251587-2.9637451-.4089355-.0011597-.15625-.0001831-.312439-.0014038-.468689v-22.3312988l-4.7327271-5.0409546-3.6224365,3.5184937-3.7456055,3.6146851.3476563.359375,2.3527222-2.2705688,2.0599976,2.1497803v19.0681152h.000061-.0001221c-2.4691772,1.0199585-4.0413818,3.220459-3.9576416,5.4672852.0869751,2.3345947,1.9268799,3.7804565,2.1843262,3.9763184,1.7133789,1.3032837,3.7196655,1.2053223,6.4877319,1.0303955,4.9248657-.3112183,7.9519043-1.8408813,9.4158936-.388855.1142578.1132202.4799805.4856567.5744629,1.0531616.2318726,1.3922729-1.3952026,2.5997925-1.5957031,2.7446899,3.0958862-.8168335,5.2288818-2.6120605,5.4255371-4.6276855.1741333-1.7853394-1.2210083-3.2301025-1.4042969-3.414856-4.5901489-4.6266479-15.9482422,1.8842163-18.1379395-1.5710449-.5881958-.9282837-.3632813-2.336731.265625-3.0247192,1.1414795-1.2487183,3.4855957-.0344238,8.0775146.6652832l.0049438.0012817v-.0004883c.0009766.0001831.0018921.0003052.0029297.0004883v-.0031128c.9655151.1782837,1.9443359.3182373,2.9202271.3999023.8027954.0678711,1.6162109.0986328,2.4276733.1008911v.0002441c.0027466.000061.005249,0,.0079956.000061.0264282.000061.0525513.0032959.0789795.0032959.0405884,0,.0809937-.0012207.121582-.0014038,1.8843384.0343018,3.3687134-.2212524,4.6134644-1.1983643,2.1040039-1.6517944,2.4619141-4.5300293,2.5227661-6.0709229l.0065308-.0062256v-16.3157959l2.0750122-2.0025024-.3476563-.359375Z"/>
  <polygon points="239.8758776 37.4732056 237.7561267 39.5189209 234.9966662 37.0691528 234.9966662 21.1504517 239.0246813 21.1504517 241.7533801 18.0866089 234.9966662 18.0866089 234.9966662 10.7781372 229.9521716 15.7457886 225.0389636 20.4873657 225.3866198 20.8467407 227.6562121 18.6564331 227.6562121 38.7037354 224.9613268 41.3042603 225.3089831 41.6636353 227.7265856 39.3306885 233.5879138 44.2774658 237.051903 40.8934326 240.2235339 37.8325806 239.8758776 37.4732056"/>
  <path d="m222.6327136,19.5552368l-2.0025024,1.9325562v-.0749512l-9.3041992-6.2636719-3.3795776,3.2825928-1.8044434,1.741394-4.72052-5.0279541-3.6508179,3.5460205-3.717041,3.5871582.3476563.359375,2.3526611-2.2704468,2.0598755,2.1496582v32.9013062l7.3403931-7.0738525v-.0039063l1.831543-1.7589111-.3466797-.3613281-1.4821167,1.4234009.0446167-11.4190674,7.0170898,4.2554321.0016479-.0027466v.0009766l7.4099121-4.4241943v-13.8713989l2.3501587-2.2680664-.3476563-.359375Zm-16.428833,16.0861206l.0581665-14.8892212,1.1471558-1.1070557,5.9424438,4.03302-.1268311,16.2210083-7.0209351-4.2577515Z"/>
  <path d="m325.334862,12.5788574c.847168-.343811,2.7156982-1.1013184,3.6383057-3.0638428,1.1104736-2.3619995.0443115-4.7262573-.1436157-5.1223145-1.3028564-2.7461548-4.7418213-4.37146-8.6170044-4.0213013,2.6237183.8404541,4.3323364,2.2368164,4.3085327,3.6383057-.0024414.1407471-.0146484.543335-.2850342.9202881-1.1629639,1.621521-5.4233398.4273682-8.5234985-.4415283-1.4320068-.4013672-7.3145142-2.3284302-8.5213013-2.4893799-1.4996338-.2000122-3.4210205-.4562988-5.6170044.3191528-.7111206.2510986-2.1548462.7634277-3.4467773,2.1383057-.4088135.4349976-1.3184814,1.4259644-1.7487793,3.0061035-.1083374.3978882-.8847046,3.4432983,1.0785522,5.7704468.8543701,1.0127563,1.8831177,1.4812622,2.4574585,1.6915283-1.0772705-2.9249878-.5391846-4.137085-.0957642-4.6755371.9846802-1.1957397,3.2044678-1.1278687,6.1025391-.5577393l-15.630127,26.0192261c-1.3046265.6502075-2.642334,1.5637817-3.8562622,2.8585815-1.984436,2.1166992-2.8413086,4.3939819-3.2233887,5.708313,1.2177734-1.0893555,4.7077026-3.9111328,9.7022095-4.109436,3.2103882-.1274414,5.7773438.8792725,6.8741455,1.3218384,2.1161499.8539429,3.6880493,1.9517212,4.7153931,2.7875977.8991699-.87146,1.7984009-1.742981,2.6975708-2.6144409l.0005493.0006104,2.4176636-2.3330078,5.8614502,4.9468384,1.8037109-1.762085,3.6720581-3.543335v5.06073h.5V13.1199951c1.5269165.086853,2.6947021-.06073,3.878418-.5411377Zm-8.4454346,8.6181641c.4733276.2231445,1.0792236.4205933,1.8116455.4470825.0566406.0019531.1123047.0029297.1674805.0029297.873291,0,1.5863647-.2503662,2.0878906-.4995117v3.7027588c-.4810181-.2352295-1.1129761-.4475708-1.8774414-.4752197-.9151611-.0293579-1.6594849.2150879-2.1895752.4682617v-3.6463013Zm0,15.8721313v-11.6673584c.4747314-.2627563,1.2253418-.5667114,2.1715088-.5267334.8105469.0290527,1.4481201.2892456,1.8955078.5427246v12.859375l-1.2967529,1.2513428-2.7702637-2.4593506Zm4.0670166-23.9837036v7.4946289c-.4658813.270813-1.2376099.6089478-2.2373047.5640259-.7702637-.0275879-1.3855591-.2641602-1.8297119-.505188v-8.1721802c.7259521.154541,1.5192871.2990723,2.4454346.4312744.5901489.0842285,1.1218872.1449585,1.621582.187439Zm-11.4074707-2.5534668v11.4494019h-10.4266968l7.3202515-12.1859741c.9716797.204834,2.0153198.4598999,3.1064453.7365723Zm-12.9324341,23.5880737c-.8743286.0289307-3.0771484.1851807-5.5189819,1.2199097l3.6151733-6.0181274h14.8362427v9.3817139l-.8143311.7858276c-1.2709961-1.3911743-5.6228027-5.5843506-12.118103-5.3693237Z"/>
  <polygon points="335.145592 21.1504517 339.1736071 21.1504517 341.9023059 18.0866089 335.145592 18.0866089 335.145592 10.7781372 330.1010974 15.7457886 325.1878893 20.4873657 325.5355456 20.8467407 327.8051379 18.656311 327.8051379 38.7037354 325.1102526 41.3042603 325.4579089 41.6636353 327.8755114 39.3306885 333.7368395 44.2774658 337.18026 40.9135132 340.3729479 37.8325806 340.0252917 37.4732056 337.9052355 39.519043 335.145592 37.0691528 335.145592 21.1504517"/>
  <path d="m352.3103869,18.9106445l-7.3956299,3.7285156v14.9526367l-2.4334106,2.3482056.3476563.359375,2.0913086-2.0181274,8.8303833,5.9962158,5.6245728-3.350769,7.3075562-4.1766968v-15.1029663l-8.8942261-6-5.4782104,3.2636108Zm6.8718262,21.619873l-7.0112915-4.7583618.1861572-16.3781738,7.0112915,4.7583618-.1861572,16.3781738Z"/>
  <polygon points="446.2137683 37.4732056 443.9982531 39.6114502 438.3411486 35.7721558 438.5273059 19.394043 445.5385974 24.1523438 452.0652087 21.6470337 443.9588244 15.6470337 431.0921252 22.6391602 431.0921252 38.2774658 439.9209216 44.2774658 444.4212878 39.8985596 444.4209826 39.8983765 446.5614245 37.8325806 446.2137683 37.4732056"/>
  <path d="m251.40786,18.9108276l-7.3952637,3.7283325v14.9529419l-2.4331055,2.3479004.3476563.359375,2.0911865-2.0180054,8.8302612,5.9960938,5.6245728-3.3508301,7.3074951-4.1766357v-15.1029663l-8.8942261-6-5.4785767,3.2637939Zm6.8721924,21.6196899l-7.0112915-4.7583618.1862183-16.3781128,7.0112305,4.7583008-.1861572,16.3781738Z"/>
  <polygon points="590.3475573 37.3765259 588.5873034 39.0613403 587.0326769 37.6436157 587.0025256 31.6835938 586.999718 31.6843262 587.0306017 21.0109863 588.7821276 19.3345337 588.4364245 18.9732056 587.0326159 20.3169556 587.0326769 20.3029175 582.2657092 15.1452026 578.2606433 19.0352783 573.4948962 23.6345215 573.5045397 20.3029175 568.737572 15.1452026 565.2494738 18.5331421 560.2829821 23.3261108 560.2917712 20.3029175 555.5248034 15.1452026 551.8456652 18.71875 548.1571276 22.2783813 548.5047839 22.6377563 550.8573229 20.3674316 552.9170764 22.5169678 552.9170764 33.5744629 552.9170764 37.6436157 550.9925768 39.4388428 557.1202014 44.2774658 562.2141345 39.3966675 560.2917712 37.6436157 560.2615588 31.6835938 560.2588122 31.6843262 560.280968 24.0229492 564.0695422 20.3667603 566.1298449 22.5169678 566.1298449 33.5744629 566.1298449 37.6436157 564.2053454 39.4388428 570.3329699 44.2774658 575.426903 39.3966675 573.5045397 37.6436157 573.4743273 31.6835938 573.4715808 31.6843262 573.492882 24.3313599 577.5992663 20.3684692 579.6580432 22.5169678 579.6580432 33.5744629 579.6580432 37.6436157 577.7334826 39.4388428 583.8611682 44.2774658 584.0837634 44.0641479 590.6932604 37.737854 590.3475573 37.3765259"/>
  <polygon points="410.9159167 37.3765259 409.1551135 39.0616455 407.6001818 37.6436157 407.5700305 31.6835938 407.5672228 31.6843262 407.5981066 21.0115967 409.350487 19.3345337 409.0047839 18.9732056 407.6001208 20.3175659 407.6001818 20.3029175 402.8332141 15.1452026 398.847069 19.0169678 394.0624011 23.6343994 394.0720446 20.3029175 389.3050768 15.1452026 385.8358996 18.5147705 380.850487 23.3259888 380.8592761 20.3029175 376.0923083 15.1452026 372.43203 18.7003784 368.7245104 22.2783813 369.0721667 22.6377563 371.4247668 20.3673096 373.4846423 22.5169678 373.4846423 33.5744629 373.4846423 37.6436157 371.5600817 39.4388428 377.6877062 44.2774658 382.7816393 39.3966675 380.8592761 37.6436157 380.8291247 31.6835938 380.8263171 31.6843262 380.8484728 24.0228271 384.636986 20.3666992 386.6974108 22.5169678 386.6974108 33.5744629 386.6974108 37.6436157 384.7728503 39.4388428 390.9004748 44.2774658 395.9944079 39.3966675 394.0720446 37.6436157 394.0418933 31.6835938 394.0390856 31.6843262 394.0603869 24.3312378 398.1667101 20.3684082 400.225548 22.5169678 400.225548 33.5744629 400.225548 37.6436157 398.3009875 39.4388428 404.428673 44.2774658 404.7282946 43.9904175 411.2616198 37.737854 410.9159167 37.3765259"/>
  <rect x="415.6376544" y="4.5223664" width="7.2904418" height="7.2904418" transform="translate(117.0297546 298.8699953) rotate(-45)"/>
  <polygon points="428.8993151 37.4732056 426.7798693 39.5187988 424.0205309 37.0691528 424.0205309 20.1861572 419.2878039 15.1452026 415.64901 18.6795044 411.9198229 22.2783813 412.2674792 22.6377563 414.6201403 20.3672485 416.6800768 22.5169678 416.6800768 38.7037964 413.9852526 41.3042603 414.3329089 41.6636353 416.7504504 39.3306885 422.6117785 44.2774658 426.0915759 40.8779907 429.2469714 37.8325806 428.8993151 37.4732056"/>
  <path d="m520.8180773.3713989c2.6237183.8404541,4.3323364,2.2368164,4.3084717,3.6383057-.0023804.1407471-.0145874.543335-.2849731.9202881-1.1630249,1.621521-5.4234009.4273682-8.5234985-.4415283-1.4320068-.4013672-7.3145142-2.3284302-8.5213013-2.4893799-1.4996948-.2000122-3.4210205-.4562988-5.6170044.3191528-.7111816.2510986-2.1549072.7634277-3.4468384,2.1383057-.4088135.4349976-1.3184204,1.4259644-1.7487183,3.0061035-.1083984.3978882-.8847046,3.4432983,1.0784912,5.7704468.8543701,1.0127563,1.8831787,1.4812622,2.4574585,1.6915283-1.0772705-2.9249878-.5391846-4.137085-.0957031-4.6755371,1.5135498-1.8380127,5.9345703-.6983032,11.2739258.6781616,3.0412598.7840576,4.6912842,1.4638672,8.2420044,1.9707642.6496582.0927124,1.2348633.1604004,1.7763062.2022095v6.2518311l-3.0009766,3.0009766,3.0009766,3.0009766v10.9572754c-.7920532.4360352-1.6572876.821228-2.6220703,1.1133423-4.7434082,1.4362183-10.2043457.3409424-13.4753418-2.8949585l8.8955688-3.4980469,1.2766113-.5006104V13.4884644l-2.3977051,1.0343018-.0003052-.0007324-9.694458,4.1415405c1.0735474-2.4743652,2.7355347-4.8701782,5.0552368-6.9464111-1.5273438.2322998-6.1008301,1.1312866-9.5266113,5.0744629-4.307251,4.9578857-4.2662964,11.803833-2.3409424,16.611145,3.0574341,7.6339111,11.5603027,11.8660278,19.0005493,10.6760864,1.0133667-.1620483,8.7763062-1.5309448,11.6808472-8.2340088,1.2897949-2.9766846,1.0964355-5.7935181.8585205-7.3413086-.2114868.5800781-1.875061,4.8908691-6.2098999,7.5217896v-10.6707153l3.0015259-3.0015869-3.0015259-3.0015869v-6.2238159c1.4509888.0679932,2.5803833-.0847778,3.7236938-.5487671.8471069-.343811,2.7156372-1.1013184,3.6383057-3.0638428,1.1104736-2.3619995.0443115-4.7262573-.1436157-5.1223145-1.3028564-2.7461548-4.7418823-4.37146-8.6170044-4.0213013Zm-17.3861694,18.9505005l5.0350952-2.151001v15.7019043l-3.2289429,1.2697144c-3.1856079-3.5060425-3.9517822-9.3075562-1.8061523-14.8206177Z"/>
  <rect x="534.5045107" y="4.5223556" width="7.2904634" height="7.2904634" transform="translate(151.8450539 382.9215631) rotate(-45)"/>
  <polygon points="547.7665026 37.4732056 545.6468737 39.5189209 542.8873522 37.0691528 542.8873522 20.1861572 538.1546252 15.1452026 534.4660266 18.7279053 530.7870104 22.2783813 531.1346667 22.6377563 533.4872058 20.3674316 535.5469592 22.5169678 535.5469592 38.7037354 532.8524401 41.3042603 533.2000964 41.6636353 535.6173327 39.3306885 541.4786608 44.2774658 544.9334338 40.9024048 548.1141589 37.8325806 547.7665026 37.4732056"/>
  <path d="m476.6678698,37.4732056l-2.1151123,2.0410767-2.680542-2.4451294.0450439-15.1524658,2.3013916-2.2208252-.3476563-.359375-1.9591675,1.890564-9.3252563-6.0778198-3.3156128,3.2322388-5.3540649,5.1674194.3476563.359375.5901489-.5695801c1.7752686,1.2819214,3.3885498,2.7688599,4.791687,4.432373.0444336.0526123.085022.1079102.1289673.1608276-5.7677612.6929321-9.2456665,5.9846191-8.1966553,10.2861938.8040161,3.296936,4.24823,5.9356689,8.4096069,6.0593872.1015625-.098999.203125-.197937.3046875-.296936l4.5418091-4.3828125,5.5449219,4.6797485,3.4681396-3.3881226,3.1676636-3.0567627-.3476563-.359375Zm-21.449646-14.4853516l3.4585571-3.3380127,5.9354248,4.0282593-.0214844,2.3804321h-.000061l-.095459,8.843689c-1.0930176-2.7230225-2.585083-5.2250366-4.4660034-7.4534302-1.4105225-1.6720581-3.0313721-3.1673584-4.8109741-4.4609375Zm4.5720215,4.9626465c2.0460205,2.4666748,3.6191406,5.2646484,4.6900635,8.3312378l-.0322876,2.989563.0026245.0022583-1.0568237,1.0198364c-2.6800537-.7146606-4.7871704-2.7756958-5.4432373-5.4154663-.9325562-3.7520142,1.5470581-6.6074219,1.8396606-6.9274292Z"/>
  <path d="m637.3954699,29.5771484l-4.6901245-4.3304443c1.4551392-1.6474609,2.6898804-3.5574951,3.6880493-5.704895.1575928-.2848511.2892456-.5692749.3973999-.8500977.0240479-.0567627.0535889-.1082153.0772705-.1652832l-.0123901-.005127c.5411377-1.5194702.4428711-2.8617554.4197998-3.1143799-1.1679688,1.8963013-3.300354,2.8356323-5.2180786,2.3696899-1.9840698-.4820557-2.8921509-2.2627563-3.0283203-2.5405884-1.55896.9296265-3.1179199,1.8592529-4.6768799,2.7889404h0l-7.0762939,3.9883423v7.7792358l3.7320557,3.9553833c-.7072754.6729126-1.4158936,1.4268799-2.1242676,2.3200073-.6149902.7757568-1.1696777,1.6035767-1.6911011,2.4505615-.2163086.2854004-.4051514.5844727-.5518799.9014282-.0031128.0054932-.006897.0106812-.0099487.0161743l.0028687.0015869c-.1752319.3827515-.302002.7844849-.3581543,1.2059326-.2888184,2.1676025,1.1690674,4.4762573,3.414917,6-.8938599-2.1972656.3945313-4.4692383,2.1331177-4.8630981,1.4227295-.3223877,3.1524658.6116943,3.8187866,2.3532104,1.55896-.9296875,3.1179199-1.859314,4.6768799-2.7889404h0l7.0762939-3.9884033v-7.7792358Zm-6.8947754-6.6138916c2.1170654.0877075,3.685791-1.0031128,4.3634033-1.5691528-.9431152,1.6158447-2.0233765,3.0847168-3.2675171,4.3496094-1.5341797,1.5603638-3.0912476,2.6473389-4.6156616,3.6365356l-2.3579712-3.2259521v-7.5076904c1.1411133,2.5214844,3.40448,4.2142944,5.8777466,4.3166504Zm-4.6188354,13.1484375c-2.2907715-.8694458-5.1033325-.371521-7.1001587.9450684.1663208-.2250977.3210449-.4595947.4945679-.6782837,2.3769531-2.9970703,4.7773438-4.5302734,7.0976563-6.0136719.3671875-.2344971.7374268-.4724731,1.1089478-.7155762l2.5655518,3.5662231v7.3486938c-.4929199-1.2409668-1.6930542-3.5136108-4.1665649-4.4524536Z"/>
</svg>
