<?xml version="1.0" encoding="utf-8"?>
<!-- Generator: Adobe Illustrator 27.3.1, SVG Export Plug-In . SVG Version: 6.00 Build 0)  -->
<svg version="1.1" xmlns="http://www.w3.org/2000/svg" xmlns:xlink="http://www.w3.org/1999/xlink" x="0px" y="0px"
	 viewBox="0 0 700.1 59.5" style="enable-background:new 0 0 700.1 59.5;" xml:space="preserve">
<style type="text/css">
	.st0{display:none;}
	.st1{display:inline;opacity:0.38;}
	.st2{display:inline;}
	.st3{display:inline;opacity:0.29;}
	.st4{display:inline;fill:#C10C0C;}
	.st5{display:inline;fill:none;}
	.st6{font-family:'PlainGermanica';}
	.st7{font-size:59px;}
	.st8{font-family:'GrobeDeutschmeister';}
	.st9{fill:none;}
	.st10{font-family:'Chomsky';}
	.st11{font-size:73px;}
</style>
<g id="Layer_1" class="st0">
	<path class="st1" d="M29.8,14c4.4,0,8.3-2.3,8.3-6.7c0-4.5-4.5-7.6-10.2-7.2v1.2c1.9,0.3,4.7,0.5,4.7,2.7c0,1.3-1.3,2-2.6,2
		c-5.6,0-13.7-4.4-18.8-4.4c-5.9,0-9.7,3.8-9.7,8.2c0,3.2,1.9,5.4,4.2,6.4l0.6-0.9c-0.8-0.4-1.5-1.2-1.5-2.4c0-2.1,1.9-3.2,4-3.2
		c2.9,0,13.4,3.4,19.2,4.1v7.5l-4,4l4,4v10.4c-2,1-4.3,1.6-6.8,1.6c-3.9,0-7.3-1.5-9.7-3.9l10.8-4.5l0-18.5L8.8,20.1
		c1.9-4.1,5.1-6.5,6.2-7.2L14.4,12C5.4,13.5,0,21.6,0,29.1c0,11.3,9.5,19,19.5,19c9.9,0,17.7-7.4,17.7-16.7c0-0.2,0-0.4,0-0.6h-1.2
		c-1.2,3.1-3.4,6-6.4,8v-9.3l4.1-4.1l-4.1-4.1L29.8,14L29.8,14z M7.3,27.1c0-1.8,0.8-5,1.3-6.4l5.8-2.4v16.3l-4,1.7
		C8.4,33.7,7.3,30.5,7.3,27.1z"/>
	<path class="st1" d="M68.7,20.5l-2.4,2L59.8,17l-7.6,7.1V1.5H51l-10,7v0.9c2.9,0.9,2.9,2.2,2.9,3.2v27.8l-4.1,2.6l1,1.4l2.3-1.5
		l6.3,5.3l7.6-5.3l-1.1-1.4L54.2,43l-2-2V26l3.4-3.2l3.6,3v15.6c0,6.3-2.2,12.2-6.7,12.2v1.5c0.6,0.1,1.3,0.1,1.9,0.1
		c10.6,0,12.7-7.6,12.7-13.8l0-17.4l2.6-2.1L68.7,20.5z"/>
	<path class="st1" d="M88.6,42.5l-7.3-5v-2.6l13.2-8.2v-0.3L88.3,17l-14.6,7.6v16.1l-2.9,2.3l1.1,1.3l2.7-2.2l9.1,6.7l12.6-10.2
		l-0.9-1.5L88.6,42.5z M81.3,22.4l1.2-0.7l5,7.2l-6.1,3.9V22.4z"/>
	<path class="st1" d="M149.7,13.2l7.3-7.6L156.4,5l-1.9,1.6c-3.9-1.2-7.3-3-10.3-5.2l-16.1,9.8c1.6-2.7,3.8-4.7,6.5-6.1L134,4.2
		c-8.9,3-16.6,11.7-16.6,23c0,11.7,9.1,22.2,20.8,22.2c9.4,0,16.8-6.6,17.2-15.7h-1.2c-2.1,4.2-6.3,8-12,8.7V9.6
		C144.6,10.9,147.1,12.1,149.7,13.2z M124.9,24c0-3.7,0.6-7,1.7-9.9l3.2-2v19.5l-3.4,1.4C125.4,30.4,124.9,27.3,124.9,24z
		 M140.5,42.5c-0.1,0-0.2,0-0.3,0c-6.2,0-10.6-3.1-13-7.9l10.6-4.5l0-22.8l0.5-0.3c0.7,0.5,1.5,1,2.3,1.5V42.5z"/>
	<path class="st1" d="M176.6,25.5c1.8,0,5.4-1,6.1-8.5h-1.8c-0.5,0.8-1.5,1.5-2.8,1.5c-1.1,0-2.2-0.6-2.8-1.5h-0.6l-4.3,4.8L166,17
		l-8.2,5.6l0.9,1.2l2.3-1.5l2,2.6V41l-3.8,2.6l0.9,1.2l2-1.5l6.7,5.3L178,42l-1.1-1.4l-3.3,2.2l-2.4-1.9V23
		C173.1,24.9,175.3,25.5,176.6,25.5z"/>
	<path class="st1" d="M210.4,23.7l-5.5-6.6l-5.9,4l3.3,3.9l0,17c0,0.3,0,0.5,0,0.8l-7.1-4.5V22.7l-4.7-5.6l-8.2,5.6l0.9,1.2l2.4-1.5
		l2.2,2.7v17.1l8.8,6.1l5.8-4c0.5,3.8,2,4,2,6.6c0,1.4-0.9,2.5-2.2,2.7c-1.9-2-4.7-3.2-7.5-3.2c-4.8,0-8.4,3.1-9.7,6.7l0.9,0.6
		c1.3-1,3-1.5,4.6-1.5c2.9,0,5,1.4,6.3,3.4l11.3-8c1.6-1.1,4.2-1.8,4.2-4.4c0-2.3-1.8-2.2-1.8-7.3V23.7z"/>
	<path class="st1" d="M239.6,22.1l-5.9-5.2l-7.7,5.7v-1.1c-1-1.9-2.4-3.4-4.1-4.5l-7.4,5l0.7,1c0.4-0.3,0.9-0.4,1.4-0.4
		c1.9,0,2.4,1.7,2.4,2.7v15.2l-3.1,2.6c1.1,0.1,2.1,0.3,3.1,0.5v15.4h1.2l8.7-5.3v-0.9c-2-0.3-2.8-1.9-2.8-4.3v-2.8
		c1.5,0.6,2.8,1.3,4.1,2.1c3.1-2.6,6.5-5,10.1-7.1v-17l2.3-1.9l-1.1-1.3L239.6,22.1z M232.7,44.1c-2.2-1-4.4-2-6.7-2.9V24.7l2.7-2
		l4,3.3V44.1z"/>
	<path class="st1" d="M260.9,22.4l2.9-3.4h-7.3v-7h-1.2l-10,10v0.9c1.2,0,2.9,0.5,2.9,2.9v14.7l-4.1,2.6l0.9,1.2l2.3-1.5l6.4,5.6
		l8.4-4.3l-0.9-1.2l-2,1.1l-2.9-2.9V22.4H260.9z"/>
	<path class="st1" d="M267.9,24.6v15.7l-3.1,2.5l1.1,1.3l2.5-2.1l8.6,6.2l13.5-8.2V23.5l-8.8-6.7L267.9,24.6z M282.8,43.6l-7-4.7
		V21.4l7,4.7V43.6z"/>
	<path class="st1" d="M350.5,41.7c-2.4-1.9-2.6-4.6-2.6-8.7V9.6c0-2.4,0.4-4.1,1.4-5.5l1.1-1.2L349,1.8l-4,3.4
		c-3.1-2-6.9-3.2-10.6-3.2c-8.6,0-16.7,5.9-16.7,15.2c0,5.6,3.1,9.8,7.3,11.8l-6.3,10.6c-3.8,2.1-6.6,5.5-7.9,9.2h1.2
		c2.7-2.9,6.6-4.6,10.6-4.6c3.5,0,6.9,1.3,9.6,3.6l6.8-5.9c2.1,2.5,4.6,4.7,7.3,6.5l8.1-6.5l-1.8-2L350.5,41.7z M321,19
		c0-6.4,5-11,11.4-11c1.6,0,3.1,0.3,4.5,0.8l-11.5,19.2C322.9,26.1,321,23,321,19z M340,37.5l-3.7,3.1c-2.8-1.9-6.2-2.9-9.6-2.9
		c-1.9,0-3.7,0.3-5.4,0.8l4.1-6.9l-0.4,0.7H340V37.5z M340,26.1h-11.2l9.8-16.5c0.5,0.3,0.9,0.5,1.4,0.8V26.1z"/>
	<path class="st1" d="M372.8,22.4l2.9-3.4h-7.3v-7h-1.2l-10,10v0.9c1.2,0,2.9,0.5,2.9,2.9v14.7l-4.1,2.6l0.9,1.2l2.3-1.5l6.4,5.6
		l8.4-4.3l-0.9-1.2l-2,1.1l-2.9-2.9V22.4H372.8z"/>
	<path class="st1" d="M379.8,24.6v15.7l-3.1,2.5l1.1,1.3l2.5-2.1l8.6,6.2l13.5-8.2V23.5l-8.8-6.7L379.8,24.6z M394.7,43.6l-7-4.7
		V21.4l7,4.7V43.6z"/>
	<polygon class="st1" points="449.6,43.1 446.7,40.2 446.7,24.8 449.8,22.4 448.7,21 446.7,22.7 440.3,17.2 432,22.4 425.9,17.2 
		417.9,22.2 413.4,17.2 404.9,23 405.8,24.2 408.1,22.7 410.4,25.4 410.4,41.6 408.1,43.6 415.1,49.2 421,43.9 418.3,41.6 
		418.3,24.3 421,22.7 425.2,26.6 425.2,41.6 422.7,43.9 428.7,49.2 435.4,43.8 432.3,41 432.3,24.6 435.5,22.7 439.7,26.6 
		439.7,41.6 437.1,43.9 443.2,49.2 452.3,43.3 452.2,41.1 	"/>
	<polygon class="st1" points="472,42.5 463.2,48.6 457.4,43.4 455.3,44.8 454.4,43.6 458.3,41 458.3,24.9 456.2,22.3 453.9,23.7 
		453,22.6 461.2,17 465.9,22.6 465.9,41 467.9,43.1 470.5,41.3 	"/>
	<rect x="457.9" y="5.2" transform="matrix(0.7512 -0.66 0.66 0.7512 108.8206 307.0923)" class="st1" width="7.8" height="7.9"/>
	<path class="st1" d="M487.7,26.3l5.8-4.4l-6.5-5.2l-12.6,7V42l9.2,6.3h0.9l9-7.9l-0.8-1.1l-3.5,2.5c-1.8,0-5.1-0.9-6.9-4.2V21.8
		L487.7,26.3z"/>
	<path class="st1" d="M520.8,43.4l-2.9-2.9V25l3.2-2.6l-1.1-1.3l-2.5,2l-9-5.8l-6.7,3.5c-1.8,0.9-3.8,2.5-3.8,5.2
		c0,2.8,2.2,4.6,5,5.8c-4.5,2.4-7.1,5.5-7.1,8.8c0,4.6,4.4,7.5,8.2,8l6.4-4.7l4.7,4.7l8.5-5.8l-0.3-1.2L520.8,43.4z M510.2,43.2
		c-0.4,0.1-0.8,0.2-1.3,0.2c-3.8,0-5.7-4.9-5.7-8.3c0-1.2,0.4-2.2,0.8-2.8c2,0.7,4.3,1.3,6.2,1.7V43.2z M510.2,32.1
		c-4.1-0.9-10.5-2.6-10.5-6.5c0-1.6,1.5-2.7,3.3-3.7l7.2,4.4V32.1z"/>
	
		<rect x="588.3" y="5.2" transform="matrix(0.7514 -0.6598 0.6598 0.7514 141.157 393.0401)" class="st1" width="7.8" height="7.9"/>
	<polygon class="st1" points="600.9,41.3 598.3,43.1 596.3,41 596.3,22.6 591.6,17 583.4,22.6 584.3,23.7 586.6,22.3 588.6,24.9 
		588.6,41 584.8,43.6 585.7,44.8 587.8,43.4 593.6,48.6 602.4,42.5 	"/>
	<polygon class="st1" points="646.5,43.1 643.7,40.2 643.7,24.8 646.7,22.4 645.6,21 643.6,22.7 637.3,17.2 628.9,22.4 622.8,17.2 
		614.8,22.2 610.3,17.2 601.8,23 602.7,24.2 605,22.7 607.4,25.4 607.4,41.6 605,43.6 612.1,49.2 617.9,43.9 615.3,41.6 615.3,24.3 
		617.9,22.7 622.2,26.6 622.2,41.6 619.6,43.9 625.7,49.2 632.4,43.8 629.2,41 629.2,24.6 632.4,22.7 636.7,26.6 636.7,41.6 
		634.1,43.9 640.1,49.2 649.2,43.3 649.2,41.1 	"/>
	<path class="st1" d="M667.4,42.5l-7.3-5v-2.6l13.2-8.2v-0.3l-6.1-9.4l-14.6,7.6v16.1l10,8.2L675,38.7l-0.9-1.5L667.4,42.5z
		 M660.1,22.4l1.2-0.7l5,7.2l-6.1,3.9V22.4z"/>
	<path class="st1" d="M700,17.2h-1.7v0l0,0c-0.2,1.4-1.5,2.5-3.1,2.5c-2.1,0-3.6-1.4-4.5-2.7l-12.6,7.3v8.5l4.6,3.6
		c-4.8,4.5-5.8,6.7-5.8,9.2c0,2.9,1.7,4.9,3.8,5.7l0.6-1.6c-0.5-0.3-0.9-0.8-0.9-1.5c0-1.5,1.5-2.3,2.9-2.3c2.2,0,3.7,1.4,4.5,2.9
		l12.1-7.3v-9.2l-5.3-3.9C698.2,25.3,699.6,21.8,700,17.2z M692.1,44.3c-1.1-2.5-3.6-4.7-7.1-4.7c-1.6,0-3.1,0.5-4.3,1.5
		c1.5-1.9,3.7-3.7,5.8-5.5l2.2-1.9l3.4,2.7V44.3z M693.1,27.7l-4.5,3.9L686,29v-8c1.3,3.1,3.9,4.5,6.6,4.5c1.1,0,2.1-0.2,3.1-0.6
		C694.9,26,693.9,26.9,693.1,27.7z"/>
	<path class="st1" d="M574.2,14c4.4,0,8.3-2.3,8.3-6.7c0-4.5-4.5-7.6-10.2-7.2v1.2c1.9,0.3,4.7,0.5,4.7,2.7c0,1.3-1.3,2-2.6,2
		c-5.6,0-13.7-4.4-18.8-4.4c-5.9,0-9.7,3.8-9.7,8.2c0,3.2,1.9,5.4,4.2,6.4l0.6-0.9c-0.8-0.4-1.5-1.2-1.5-2.4c0-2.1,1.9-3.2,4-3.2
		c2.9,0,13.4,3.4,19.2,4.1v7.5l-4,4l4,4v10.4c-2,1-4.3,1.6-6.8,1.6c-3.9,0-7.3-1.5-9.7-3.9l10.8-4.5l0-18.5l-13.4,5.7
		c1.9-4.1,5.1-6.5,6.2-7.2l-0.6-0.9c-9,1.5-14.4,9.5-14.4,17c0,11.3,9.5,19,19.5,19c9.9,0,17.7-7.4,17.7-16.7c0-0.2,0-0.4,0-0.6
		h-1.2c-1.2,3.1-3.4,6-6.4,8v-9.3l4.1-4.1l-4.1-4.1L574.2,14L574.2,14z M551.7,27.1c0-1.8,0.8-5,1.3-6.4l5.8-2.4v16.3l-4,1.7
		C552.8,33.7,551.7,30.5,551.7,27.1z"/>
</g>
<g id="Layer_2" class="st0">
	
		<image style="display:inline;overflow:visible;opacity:0.35;" width="2917" height="248" xlink:href="TCAT-Logo_Sketch.png"  transform="matrix(0.24 0 0 0.24 0 0)">
	</image>
</g>
<g id="Layer_3" class="st0">
</g>
<g id="Layer_4" class="st0">
</g>
<g id="Layer_5" class="st0">
</g>
<g id="Layer_6" class="st0">
	<path class="st2" d="M35.3,2.1C32.2,1.2,27.7,0,27.7,0l0.1,4.6c0,0,6.5,0.9,6.5,1.1c0,0.2-1,0.8-1,0.8c-7.1,0-17.7-6.5-25-4.7
		C1,3.5,0.9,10,0.9,10l2,2c0,0,0.6-3.7,8.6-2c2.6,0.6,5.1,1.1,7.4,1.7c-0.6,0-1.1-0.1-1.7-0.1C6.2,11.7-0.6,21.2,0,30.5
		C0.6,38.9,7.7,47.3,17,48c20,1.4,20.3-17.2,20.3-17.2s-0.6,0-1.1,0c-1.1,2.7-3.1,5.7-6.2,7.8V14.1c2.5,0.1,3.8-0.9,3.8-0.9
		s-1.5-1.5-1-2.2C34.6,9.3,37,7.8,38,6.6C38.9,5.4,36.2,2.7,35.3,2.1z M19,11.7c3.7,0.9,6.8,1.7,8.8,2.1v19.6l-5.6,0.9v-20L8.8,19.9
		C12,13,19,11.7,19,11.7z M7.8,22.9c0.1-0.5,0.3-1,0.4-1.5l6.1-0.9l0.1,19.3C8.9,37,6,30.1,7.8,22.9z M20.1,41.3
		c-2.1,0-3.9-0.6-5.6-1.4l13.3-5v4.8h0C25.7,40.8,23.1,41.4,20.1,41.3z"/>
	<path class="st2" d="M35.3,2.1C32.2,1.2,27.7,0,27.7,0l0.1,4.6c0,0,6.5,0.9,6.5,1.1c0,0.2-1,0.8-1,0.8c-7.1,0-17.7-6.5-25-4.7
		C1,3.5,0.9,10,0.9,10l2,2c0,0,0.6-3.7,8.6-2c2.6,0.6,5.1,1.1,7.4,1.7c-0.6,0-1.1-0.1-1.7-0.1C6.2,11.7-0.6,21.2,0,30.5
		C0.6,38.9,7.7,47.3,17,48c20,1.4,20.3-17.2,20.3-17.2s-0.6,0-1.1,0c-1.1,2.7-3.1,5.7-6.2,7.8V14.1c2.5,0.1,3.8-0.9,3.8-0.9
		s-1.5-1.5-1-2.2C34.6,9.3,37,7.8,38,6.6C38.9,5.4,36.2,2.7,35.3,2.1z M19,11.7c3.7,0.9,6.8,1.7,8.8,2.1v19.6l-5.6,0.9v-20L8.8,19.9
		C12,13,19,11.7,19,11.7z M7.8,22.9c0.1-0.5,0.3-1,0.4-1.5l6.1-0.9l0.1,19.3C8.9,37,6,30.1,7.8,22.9z M20.1,41.3
		c-2.1,0-3.9-0.6-5.6-1.4l13.3-5v4.8h0C25.7,40.8,23.1,41.4,20.1,41.3z"/>
</g>
<g id="Layer_7" class="st0">
	<path class="st2" d="M71.7,48.5l-3,1c0,0-1.5-15.8-1.5-26c-1.5-1.3-7.3-6.5-7.3-6.5l-7.1,6.4L52.2,1.5h-1.2l-10,7l0.1,1.1
		c0,0,2.1,0.4,2.8,2.5c0,5.6,0.2,35.2,0.2,35.2l2,1.6l11.4-9.3l-1.2-1.7l-3.1,1l-0.4-13.3l2.8-2.5c0,0,3.7,3.8,3.7,4.2
		c0.1,10.4,0.2,30.8,0.2,30.8l2,1.6l11.4-9.3L71.7,48.5z"/>
</g>
<g id="Layer_9" class="st0">
	<path class="st2" d="M88.4,16.9l-14.7,7.8l-0.1,16.1L70.7,43l1.2,1.4l2.9-2.3l8.9,6.8l12.6-10.3l-0.9-1.5l-6.9,5.4l-7.4-5.5
		l13.3-10.5L88.4,16.9z M81.8,33.7l-0.8-11.2l1.5-0.9l5.3,7.9L81.8,33.7z"/>
</g>
<g id="Layer_10" class="st0">
	<path class="st3" d="M144.2,1.2c-0.6,0-15.3,9.9-15.8,9.9c-0.9,0,6.2-5.8,6.2-5.8L133.9,4c0,0-8.6,4.3-13.2,10.9
		c-3.5,5-3.3,12.2-3.1,15.6c0.6,8.4,7.7,16.8,17,17.4c20,1.4,20.3-17.2,20.3-17.2s-0.6,0-1.1,0c-1.1,2.7-3.1,5.7-6.2,7.8V12l2.2,1.2
		l7.2-7.5L156.2,5l-1.8,1.4C154.4,6.4,143.1,0.9,144.2,1.2z M136.9,12.1c3.7,0.9,6.5-1.4,8.6-1v22.3l-5.6,0.9v-20
		c0,0-8.4,3.6-14.2,5.9c-1.5-3.8,1.7-6.9,1.7-6.9S136.9,12.1,136.9,12.1z M125,23c0.1-0.5,0.3-1,0.4-1.5l6.5-1l0.1,19.3
		C126.6,37,123.2,30.3,125,23z M137.7,41.3c-2.1,0-3.9-0.6-5.6-1.4l13.3-5v4.8h0C143.3,40.8,140.8,41.4,137.7,41.3z"/>
</g>
<g id="Layer_13" class="st0">
</g>
<g id="Layer_11" class="st0">
</g>
<g id="Layer_12" class="st0">
	<polygon class="st2" points="8.8,19.9 22.3,14.3 22.3,34.3 27.8,33.4 27.8,34.9 14.5,39.9 14.3,20.6 8.2,21.4 	"/>
</g>
<g id="Layer_14" class="st0">
	<path class="st2" d="M146.1,42V11.9c1.2,0.5,2.4,0.9,3.7,1.2c3.3-3.3,7.3-7.7,7.3-7.7l-0.6-0.6c0,0-0.9,0.6-2.2,1.5
		c-5.2-1-9.9-5.2-9.9-5.2l-17,10.3c1.8-2.9,4.3-5.2,7.2-6.6c-0.2-0.4-0.4-0.8-0.5-1c-9.4,2-16.5,11-16.5,21.9
		c0,12.3,9.1,22.3,20.4,22.3c8.8,0,14.8-6.1,17.6-14.6c-0.7,0-0.6,0-1.3,0C152.2,37.5,149.5,40.5,146.1,42z M125.9,14.2l12.3-7
		c0,0,2.4,2,5.8,3.8v22.3l-5.1,0.8v-20l-14.6,5.6C124.6,17.8,125.1,15.9,125.9,14.2z M124,23.4c0-0.7,0-1.4,0.1-2.1l6.9-1l0.1,19.3
		C126.8,36.1,124,30.1,124,23.4z M131.1,39.6l12.9-4.8v7.9c-1.1,0.3-2.3,0.5-3.5,0.5C137.1,43.2,133.8,41.9,131.1,39.6z"/>
</g>
<g id="Layer_15" class="st0">
	<path class="st2" d="M157.5,22.6l1,1.3l2.4-1.6l2.3,2.7l0.1,22.2l2,1.6l11.4-9.3l-1.3-1.7l-3,1l-1.2-15.7c0,0,3.1,3.1,6.8,2.4
		c3.6-0.7,4.8-8.3,4.8-8.3h-2c0,0-0.6,1.4-2.7,1.3c-2-0.1-3.1-1.3-3.1-1.3l-4.5,4.6l-4.5-4.6L157.5,22.6z"/>
</g>
<g id="Layer_16" class="st0">
	<polygon class="st2" points="44,32.5 44.1,47.3 46.1,48.9 57.5,39.5 56.2,37.8 53.2,38.8 52.1,25 44,28.8 	"/>
	<polygon class="st4" points="218.9,42.8 219,57.6 221,59.2 232.4,49.8 231.1,48.1 228.1,49.1 227,35.4 218.9,39.1 	"/>
</g>
<g id="Layer_17" class="st0">
	<polygon class="st2" points="182.2,22.6 183.1,23.9 185.6,22.3 187.8,25 187.8,42.1 196.5,48.2 203.3,43.6 195.1,38.4 195.1,22.6 
		190.3,17.1 	"/>
	<path class="st2" d="M198.9,21.1l5.8-4l5.6,6.5v26.5l-11.1,7.6l-12.9-3.2c0,0,2.4-5.1,9-4.3c6.7,0.8,5.6,4,8.1,2.6
		c2.5-1.5-1.4-6.1-1.2-8.8S202,25.2,202,25.2L198.9,21.1z"/>
</g>
<g id="Layer_18" class="st0">
	<rect y="0" class="st5" width="700.1" height="59.5"/>
	<text transform="matrix(1 0 0 1 84.8989 48.4007)" class="st2 st6 st7">The Crypto Atomica </text>
</g>
<g id="Layer_19" class="st0">
	<path class="st2" d="M12.9,12.3l1.4-0.4c0,0-1.6,5.8-7.3,5.1c-3-0.4-4.4-1.3-5.1-2.5s-1-1.5-1-4.3c0-2.8,4.1-11,19.6-9.4
		s13.9,4.5,19,4.8c5.1,0.2,4.6-4.3,4.6-4.3l1-0.2c0,0,0.9,2.2,0.5,4.7c-0.5,3.3-2.9,7.1-10.1,7.7c-8.4,0.6-11.4-2.8-16.3-5.3
		c-2.6-1.3-6.5-2.5-10.5-2.5s-6.9,2.8-6.8,4.9C2,14.2,8.1,17.9,12.9,12.3z"/>
</g>
<g id="Layer_20" class="st0">
	<rect y="1.9" class="st5" width="700.1" height="59.5"/>
	<text transform="matrix(1 0 0 1 72.0376 48.5832)" class="st2 st8 st7">The Crypto Atomica Times</text>
</g>
<g id="Layer_21">
	<rect x="-3.6" y="3.9" class="st9" width="707.2" height="59.5"/>
	<text transform="matrix(1 0 0 1 -2.4197 48.5618)" class="st10 st11">The Crypto Atomica Times</text>
</g>
</svg>
